<svg xmlns="http://www.w3.org/2000/svg" xmlns:xlink="http://www.w3.org/1999/xlink" viewBox="0 0 95.93 95.93"><defs><style>.cls-1{fill:#fff;}.cls-2{fill:#ef3927;}.cls-3{opacity:0.55;}.cls-4{opacity:0.3;}.cls-5{fill:#290f0f;}.cls-6{fill:#e2a556;}.cls-7{opacity:0.25;}.cls-8{mask:url(#mask);}.cls-9{fill:#a65225;}.cls-10{mask:url(#mask-2);}.cls-11{mask:url(#mask-3);}</style><mask id="mask" x="24.47" y="46.93" width="33.39" height="18.54" maskUnits="userSpaceOnUse"><path class="cls-1" d="M24.47,46.93H56.89a0,0,0,0,1,0,0v4.3A14.23,14.23,0,0,1,42.66,65.47H24.47a0,0,0,0,1,0,0V46.93a0,0,0,0,1,0,0Z"/></mask><mask id="mask-2" x="4.1" y="52.28" width="28.5" height="17.26" maskUnits="userSpaceOnUse"><path class="cls-1" d="M4.1,52.28H28.87a0,0,0,0,1,0,0V67.92a0,0,0,0,1,0,0H16.11a12,12,0,0,1-12-12V52.28A0,0,0,0,1,4.1,52.28Z"/></mask><mask id="mask-3" x="41.35" y="50.53" width="22.5" height="12.21" maskUnits="userSpaceOnUse"><path class="cls-1" d="M43.1,50.53H60.84a0,0,0,0,1,0,0v2.72a9,9,0,0,1-9,9H43.1a0,0,0,0,1,0,0V50.53A0,0,0,0,1,43.1,50.53Z"/></mask></defs><g id="Layer_2" data-name="Layer 2"><g id="Layer_1-2" data-name="Layer 1"><circle class="cls-1" cx="47.96" cy="47.96" r="47.96"/><ellipse class="cls-2" cx="39.85" cy="86.5" rx="11.16" ry="4.25" transform="translate(-14.02 7.96) rotate(-9.71)"/><g class="cls-3"><path class="cls-1" d="M41.44,90.53l-.87.16c-6.08,1-11.32,0-11.72-2.3s4.21-5,10.29-6.07l.87-.14c-5.64,1.14-9.79,3.71-9.41,5.91S35.74,91.33,41.44,90.53Z"/></g><g class="cls-4"><path class="cls-5" d="M43.15,85.94c.26,1.53-1.66,3.23-4.74,4.51h0l.53-.09c6.08-1,10.68-3.75,10.28-6.06-.17-1-1.25-1.76-2.91-2.22l.45.07a23.56,23.56,0,0,0-7.62.17,28.35,28.35,0,0,0-3.81.92C39.61,83.12,42.84,84.14,43.15,85.94Z"/></g><path class="cls-5" d="M36,91.69a18.3,18.3,0,0,1-3.53-.32c-2.47-.48-4-1.51-4.2-2.88s.83-2.84,3-4.12A23.48,23.48,0,0,1,39,81.74a23.66,23.66,0,0,1,8.2-.11c2.47.49,4,1.52,4.19,2.89h0c.24,1.38-.83,2.84-3,4.12a23.56,23.56,0,0,1-7.77,2.63A27.55,27.55,0,0,1,36,91.69Zm7.71-9.19a27.26,27.26,0,0,0-4.47.4,22.37,22.37,0,0,0-7.37,2.49c-1.67,1-2.58,2.06-2.43,2.9s1.36,1.55,3.26,1.93a22.43,22.43,0,0,0,7.77-.11,22.45,22.45,0,0,0,7.37-2.49c1.66-1,2.57-2.06,2.43-2.9S48.91,83.17,47,82.79A17.62,17.62,0,0,0,43.71,82.5Z"/><path class="cls-2" d="M61.6,56C67.54,90.7,15.14,99.67,9.19,65c-.9-5.27,10.1-11.55,24.57-14S60.69,50.71,61.6,56Z"/><g class="cls-3"><path class="cls-1" d="M26.64,69.85a44,44,0,0,1-5.78-.36h0l-.12,0a29.16,29.16,0,0,1-3.11-.59L17,68.7a17.71,17.71,0,0,1-2.32-.82,7.53,7.53,0,0,1-2.39-1.53.48.48,0,0,1,0-.69.49.49,0,0,1,.69,0A6.72,6.72,0,0,0,15,67a16.28,16.28,0,0,0,2.19.77l.64.17a27,27,0,0,0,3,.58h0a43.26,43.26,0,0,0,7.08.35h0c.91,0,1.83-.07,2.75-.14h0l1.09-.09c1-.09,2-.22,3.08-.37l.45-.06,1.47-.24.86-.15c.86-.16,1.72-.33,2.55-.52h0l.1,0,1-.24v0l.46-.09.7-.18c1.3-.34,2.57-.73,3.79-1.14l.83-.29c1.38-.5,2.69-1,3.91-1.62l.15-.07.53-.26c.76-.38,1.48-.78,2.15-1.19s1.11-.69,1.59-1c2.5-1.78,3.49-3.34,3.36-4.09a.49.49,0,0,1,.4-.57.5.5,0,0,1,.57.41c.23,1.34-1.14,3.18-3.76,5-.49.36-1.05.73-1.65,1.09s-1.44.83-2.22,1.22l-.54.26-.16.08a42.17,42.17,0,0,1-4,1.65l-.84.3c-1.24.42-2.54.81-3.86,1.16l-.58.15-.14,0h-.08l-1.3.3h0l-.12,0c-.87.2-1.77.38-2.67.55l-.88.15c-.47.09-.95.16-1.47.24l-.47.07c-1.07.15-2.12.28-3.13.37l-1.11.1h0c-.92.07-1.85.12-2.76.14h0C27.58,69.85,27.11,69.85,26.64,69.85Z"/></g><g class="cls-3"><path class="cls-1" d="M40.58,86.37c-12.7,2.5-27-3.2-30.92-19.15h0a3.64,3.64,0,0,1,2.18,2.27C16.37,83,29,88.07,40.58,86.37Z"/></g><path class="cls-6" d="M81.17,23a2.19,2.19,0,0,1-1.67,2.6h0l-8.2,1.63-3.36.68-1.56.3-2.2.44L29.37,35.59a1.21,1.21,0,0,1-1.43-.94,1.2,1.2,0,0,1,.15-.91,1.25,1.25,0,0,1,.76-.54l34.69-8.29,2.05-.49,1.34-.32,3.53-.85,8.06-1.92A2.2,2.2,0,0,1,81.17,23Z"/><path class="cls-5" d="M66.42,26.27a4.37,4.37,0,0,1-.08,1.94l-2.2.44a2.57,2.57,0,0,0,.5-2,2.63,2.63,0,0,0-1.1-1.69l2.05-.49A4.32,4.32,0,0,1,66.42,26.27Z"/><path class="cls-5" d="M71.3,25.22a4.85,4.85,0,0,1,0,2l-3.36.68-.2-.23a2,2,0,0,0,.69-1.92,2.26,2.26,0,0,0-1.46-1.66l3.53-.85A4.87,4.87,0,0,1,71.3,25.22Z"/><g class="cls-3"><path class="cls-1" d="M81.17,23a2.09,2.09,0,0,1,0,.61,2.17,2.17,0,0,0-2.43-1.08l-8.06,1.92-3.53.85-1.33.32-2.06.49L29.11,34.39a1.18,1.18,0,0,0-.76.54,1.43,1.43,0,0,0-.13.28,1.26,1.26,0,0,1-.13-1.47,1.25,1.25,0,0,1,.76-.54l34.69-8.29,2.05-.49,1.34-.32,3.53-.85,8.06-1.92A2.2,2.2,0,0,1,81.17,23Z"/></g><path class="cls-5" d="M29.14,36.21a1.82,1.82,0,0,1-.43-3.58L78.39,20.76a2.73,2.73,0,0,1,2.12.34,2.78,2.78,0,0,1,1.23,1.76A2.71,2.71,0,0,1,81.35,25a2.76,2.76,0,0,1-1.78,1.21l-50.08,10A2.21,2.21,0,0,1,29.14,36.21ZM79,21.86a1.61,1.61,0,0,0-.37,0L29,33.78a.63.63,0,0,0-.48.75.64.64,0,0,0,.75.48L79.34,25A1.59,1.59,0,0,0,79,21.86Z"/><path class="cls-1" d="M61.48,66.22h0C60.4,70.84,50.74,75.89,38.4,78s-23.13.57-25.69-3.43h0l-2.44-5.2h0C13,73.61,24.44,75.25,37.54,73S60.9,65.41,62.05,60.5h0Z"/><g class="cls-4"><path class="cls-5" d="M31.14,86.35c14.62,1.19,30.43-8.78,29.59-26.88h0a13.85,13.85,0,0,1-3.32,3.34,3.85,3.85,0,0,0-1.48,2.45C53.81,78,42.67,85.53,31.14,86.35Z"/></g><path class="cls-5" d="M34.8,87.53A28.33,28.33,0,0,1,25,85.81C16.16,82.54,10.34,75.17,8.61,65.05c-.48-2.81,1.94-5.89,6.81-8.67a57.46,57.46,0,0,1,18.24-6A57.49,57.49,0,0,1,52.87,50c5.52,1,8.83,3.1,9.31,5.91,1.73,10.12-1.3,19-8.54,25A29,29,0,0,1,40,87.09,31,31,0,0,1,34.8,87.53Zm10.26-37a66.59,66.59,0,0,0-11.2,1A56.34,56.34,0,0,0,16,57.41c-4.35,2.48-6.62,5.19-6.23,7.44C11.43,74.54,17,81.59,25.4,84.7A28.69,28.69,0,0,0,52.88,80c6.9-5.73,9.79-14.22,8.13-23.91-.38-2.25-3.43-4.06-8.35-4.95A43.38,43.38,0,0,0,45.06,50.51Z"/><g class="cls-7"><path class="cls-1" d="M25.35,75.4c2.8,2.95,4.9,5.5,3.49,6.83s-4.82,0-7.61-2.92-3.93-6.43-2.52-7.76S22.55,72.45,25.35,75.4Z"/></g><path class="cls-6" d="M78.93,13.56a2.18,2.18,0,0,1-1.33,2.78h0L69.62,19l-3.26,1.07-1.51.5-2.13.71L29.06,32.37a1.22,1.22,0,0,1-1.54-.75,1.2,1.2,0,0,1,.05-.93,1.21,1.21,0,0,1,.68-.63L61.67,17.61l2-.74,1.29-.48,3.4-1.26,7.77-2.9A2.18,2.18,0,0,1,78.93,13.56Z"/><path class="cls-5" d="M28.68,32.52A1.31,1.31,0,0,1,28.22,30L76.08,12.16a2.27,2.27,0,1,1,1.55,4.26h0l-48.49,16A1.18,1.18,0,0,1,28.68,32.52ZM76.87,12.18a2,2,0,0,0-.73.13L28.28,30.14a1.09,1.09,0,0,0-.64.59,1.12,1.12,0,0,0,0,.86A1.15,1.15,0,0,0,29,32.3L62.7,21.18l14.87-4.92a2,2,0,0,0,1.2-1.07,2.14,2.14,0,0,0,.09-1.61h0a2.09,2.09,0,0,0-1.1-1.2A2,2,0,0,0,76.87,12.18Z"/><path class="cls-5" d="M64.69,18.61a4.28,4.28,0,0,1,.16,1.94l-2.13.71a2.55,2.55,0,0,0,.25-2.1,2.68,2.68,0,0,0-1.3-1.55l2-.74A4.24,4.24,0,0,1,64.69,18.61Z"/><path class="cls-5" d="M69.41,17a4.92,4.92,0,0,1,.21,2l-3.26,1.07-.22-.2a2,2,0,0,0,.45-2,2.27,2.27,0,0,0-1.65-1.47l3.4-1.26A4.8,4.8,0,0,1,69.41,17Z"/><g class="cls-3"><path class="cls-1" d="M78.93,13.56a2.13,2.13,0,0,1,.12.6,2.18,2.18,0,0,0-2.54-.78l-7.76,2.89-3.41,1.27L64.05,18l-2,.74L28.65,31.21a1.24,1.24,0,0,0-.68.63,1.06,1.06,0,0,0-.1.3,1.26,1.26,0,0,1-.35-.52,1.2,1.2,0,0,1,.05-.93,1.21,1.21,0,0,1,.68-.63L61.67,17.61l2-.74,1.29-.48,3.4-1.26,7.77-2.9A2.18,2.18,0,0,1,78.93,13.56Z"/></g><path class="cls-5" d="M28.68,33A1.82,1.82,0,0,1,28,29.51L75.9,11.68a2.78,2.78,0,1,1,1.84,5.24l-48.5,16A1.54,1.54,0,0,1,28.68,33ZM76.87,12.69a1.58,1.58,0,0,0-.56.1L28.45,30.62a.63.63,0,0,0,.42,1.19l48.5-16A1.55,1.55,0,0,0,78.3,15a1.59,1.59,0,0,0,.08-1.23,1.61,1.61,0,0,0-.83-.91A1.64,1.64,0,0,0,76.87,12.69Z"/><g class="cls-8"><path class="cls-9" d="M57.37,59.91c0,.1,0,.21,0,.32l-.33.11c-.69.24-1.42.47-2.17.69l-.58.17-1.07.29-.72.19h-.08l-.2,0-.31.08L51,62h0l-1.5.32-.47.09-.69.13-.87.16-.36.06h0L46,63h0l-.46.07-.84.11h0c-.76.1-1.51.18-2.24.25l-.23,0-.73.06h-.17l-1.7.1-.87,0h-.22c-.83,0-1.64,0-2.42,0a10.82,10.82,0,0,1-.66-3.74,11,11,0,1,1,21.93,0Z"/><g class="cls-3"><path class="cls-1" d="M44.78,51.58c.24,0,.48,0,.73,0a1.24,1.24,0,0,0,1.2-1.27v0A1.24,1.24,0,0,0,45.43,49a7.85,7.85,0,0,0-1,.1,1.24,1.24,0,0,0-1,1.42h0A1.23,1.23,0,0,0,44.78,51.58Z"/></g><g class="cls-3"><path class="cls-1" d="M45,53.88q.36,0,.72-.06A1.24,1.24,0,0,0,47,52.55v0a1.24,1.24,0,0,0-1.28-1.21,10.07,10.07,0,0,0-1,.11,1.23,1.23,0,0,0-1,1.41h0A1.25,1.25,0,0,0,45,53.88Z"/></g><g class="cls-3"><path class="cls-1" d="M45.44,56.37c.24,0,.48,0,.73-.06A1.23,1.23,0,0,0,47.37,55v0a1.24,1.24,0,0,0-1.28-1.21,10.07,10.07,0,0,0-1,.11,1.23,1.23,0,0,0-1,1.42h0A1.23,1.23,0,0,0,45.44,56.37Z"/></g><path class="cls-5" d="M37.16,64.15H35.75l-.11-.31A11.3,11.3,0,0,1,35,59.91a11.46,11.46,0,1,1,22.91,0v.67l-.32.11-.21.07-.13.05c-.69.23-1.43.47-2.19.69l-.58.17L53.34,62l-.36.1h0l-.54.13-.12,0L52,62.3l-.81.19-.08,0-1.51.32-.48.09-.69.14-.88.15-.35.06h-.06l-1,.16h-.09l-.47.07h0l-.77.11h0c-.77.09-1.53.18-2.26.25h-.25l-.65.06-.25,0c-.59,0-1.17.08-1.71.1l-.88,0h-.21Zm7.59-.52h0Zm-8.3-.47c.65,0,1.32,0,2,0h.27l.88,0c.53,0,1.09-.06,1.68-.11h.23l.67-.06h.23c.71-.07,1.45-.15,2.2-.25h0l.78-.11h0l.41-.06H46l1-.16h.07l.31,0,.87-.15.68-.13.47-.1c.45-.08.9-.18,1.36-.28h0l.14,0,.86-.2.22-.05v-.11h.43l.65-.17c.37-.09.72-.19,1.07-.29l.57-.16c.75-.22,1.48-.45,2.15-.69h0a10.48,10.48,0,1,0-20.43,3.29Zm8.2-.5h0Z"/><path class="cls-5" d="M38.47,64.07l-.13-.25a9,9,0,1,1,17-3.91,9.36,9.36,0,0,1-.08,1.18l0,.28-.27.08-.58.16c-.35.11-.71.2-1.08.3l-.4.1h0l-.49.12-.12,0-.32.08-.81.18-.08,0c-.51.12-1,.22-1.5.32l-.48.1-.69.13-.88.16-.35.05h-.05l-1,.16h-.09l-.46.07h0l-.78.1h0c-.77.1-1.52.18-2.26.25h-.24l-.66.06-.25,0c-.59,0-1.16.08-1.7.1l-.88,0Zm6.27-.49Zm1.67-11.77A8.09,8.09,0,0,0,39,63.19l.58,0c.53,0,1.1,0,1.68-.1l.24,0,.66,0,.15,0h.09c.71-.06,1.45-.14,2.2-.24h0l.77-.1h.06l.41-.06H46l1-.16h.06l.32-.05.87-.16L49,62l.48-.09,1.37-.29h0l.13,0,.86-.2.26-.06v-.1h.39l.66-.17,1.06-.29.3-.09a6.79,6.79,0,0,0,0-.78A8.1,8.1,0,0,0,46.41,51.81Zm-1.76,10.9Z"/><path class="cls-5" d="M41.27,63.94l-.14-.2a6.45,6.45,0,0,1-1.25-3.83,6.53,6.53,0,1,1,12.75,2l-.08.23-.23.06-.33.08-.81.18-.08,0c-.51.12-1,.22-1.5.32l-.48.1-.69.13-.88.16-.35.05h-.05l-1,.16h-.09l-.46.07h0l-.78.1h0c-.77.1-1.52.18-2.26.25h-.24l-.66.06Zm3.47-.36Zm1.67-9.33a5.67,5.67,0,0,0-5.66,5.66A5.6,5.6,0,0,0,41.69,63l.48,0,.15,0h.09c.71-.06,1.45-.14,2.2-.24h0l.77-.1h.06l.41-.06H46l1-.16h.06l.32-.05.87-.16L49,62l.48-.09,1.37-.29h0l.13,0,.86-.2.08,0a5.59,5.59,0,0,0,.19-1.47A5.67,5.67,0,0,0,46.41,54.25Zm-1.76,8.46Z"/><path class="cls-5" d="M44.63,63.59l-.12-.06a4.1,4.1,0,1,1,4.84-.79l-.09.1-.14,0-.69.13-.88.16-.35.05h-.05l-1,.16h-.09l-.46.07h0l-.8.11Zm1.77-6.91a3.22,3.22,0,0,0-1.61,6l.64-.08h.06l.41-.06H46l1-.16h.06l.32-.05.87-.16.55-.1a3.22,3.22,0,0,0-2.42-5.36Z"/></g><path class="cls-9" d="M43.2,61c0,.11,0,.22,0,.32l-.33.11c-.69.24-1.42.47-2.17.69l-.58.17L39,62.54l-.72.19h0l-.07,0h0l-.2,0-.32.08-.87.2h0l-1.49.32-.48.09-.69.14-.87.15-.36.06h0L31.84,64h0l-.46.06-.83.12h0c-.77.1-1.51.18-2.24.25l-.23,0-.74.07h-.17c-.57,0-1.14.08-1.69.1l-.88,0h-.21c-.84,0-1.65,0-2.43,0A11,11,0,1,1,43.2,61Z"/><g class="cls-3"><path class="cls-1" d="M30.61,52.64l.72-.06a1.23,1.23,0,0,0,1.21-1.27v0a1.25,1.25,0,0,0-1.29-1.21c-.34,0-.69.06-1,.11a1.23,1.23,0,0,0-1,1.41h0A1.25,1.25,0,0,0,30.61,52.64Z"/></g><g class="cls-3"><path class="cls-1" d="M30.85,54.93a6,6,0,0,1,.73,0,1.26,1.26,0,0,0,1.21-1.28v0a1.24,1.24,0,0,0-1.29-1.2,7.69,7.69,0,0,0-1,.1,1.23,1.23,0,0,0-1,1.42h0A1.24,1.24,0,0,0,30.85,54.93Z"/></g><g class="cls-3"><path class="cls-1" d="M31.27,57.42a5.81,5.81,0,0,1,.72-.05,1.25,1.25,0,0,0,1.21-1.28v0a1.24,1.24,0,0,0-1.29-1.2,7.87,7.87,0,0,0-1,.1,1.24,1.24,0,0,0-1,1.42h0A1.25,1.25,0,0,0,31.27,57.42Z"/></g><path class="cls-5" d="M23,65.21l-1.07,0h-.33l-.12-.32A11.46,11.46,0,1,1,43.69,61c0,.11,0,.23,0,.34v.34l-.32.11-.2.07-.13,0c-.69.24-1.43.47-2.2.7l-.58.16-1.08.3-.35.09h0l-.54.13-.12,0-.32.08-.81.18-.08,0c-.51.12-1,.23-1.5.32L35,64l-.69.13-.87.16-.35,0H33l-1,.16h-.08l-.47.07h-.05l-.78.1h0c-.76.1-1.52.18-2.26.25h-.24l-.66.06-.25,0c-.59,0-1.16.08-1.7.1l-.89,0h-.21Zm7.6-.52h0Zm-8.3-.47c.65,0,1.31,0,2,0h.28c.29,0,.58,0,.87,0,.53,0,1.1-.06,1.69-.1l.23,0L28,64h.24c.71-.06,1.45-.15,2.2-.24h0l.78-.11h.05l.41-.06h.13l1-.16h.06l.32-.05.86-.16.69-.13.47-.09,1.36-.29h0l.14,0,.87-.2.21,0v-.11h.43l.66-.17L40,61.78l.58-.17c.75-.22,1.47-.45,2.15-.68h0a10.47,10.47,0,0,0-20.94,0A10.25,10.25,0,0,0,22.28,64.22Zm8.19-.51Z"/><path class="cls-5" d="M24.29,65.13l-.12-.25a8.87,8.87,0,0,1-.9-3.92,9,9,0,0,1,17.92,0,9.12,9.12,0,0,1-.07,1.18l0,.28-.27.08-.58.17L39.15,63l-.4.11h0l-.49.11-.12,0-.32.08-.81.19-.08,0-1.51.32-.48.09-.69.13-.87.16-.36.06H33l-1,.15-.09,0-.47.06h-.05l-.77.11h-.05c-.76.1-1.52.19-2.25.26h-.08l-.17,0-.65.06h-.25c-.59,0-1.17.08-1.7.11l-.89,0Zm6.28-.5Zm1.66-11.76A8.1,8.1,0,0,0,24.14,61a8,8,0,0,0,.69,3.28l.59,0,1.68-.1.23,0L28,64h.23c.72-.07,1.46-.15,2.21-.25h0l.78-.11h0l.42-.06h0l.08,0,1-.16h.06l.32-.06.86-.15.69-.13.47-.1c.45-.09.91-.18,1.38-.29h0l.12,0,.87-.2.26-.06V62.3h.38l.66-.17c.37-.09.72-.19,1.07-.29l.3-.08c0-.26,0-.53,0-.79A8.1,8.1,0,0,0,32.23,52.87Zm-1.75,10.9h0Z"/><path class="cls-5" d="M27.1,65l-.15-.2A6.53,6.53,0,1,1,38.76,61a6.24,6.24,0,0,1-.31,2l-.07.23-.24.06-.32.08-.81.19-.08,0-1.51.32-.48.09-.69.13-.87.16-.36.06H33l-1,.15-.09,0-.47.06h-.05l-.77.11h-.05c-.76.1-1.52.19-2.25.26h-.08l-.17,0-.65.06Zm3.47-.36Zm1.66-9.33A5.67,5.67,0,0,0,26.57,61a5.59,5.59,0,0,0,.95,3.12L28,64h.23c.72-.07,1.46-.15,2.21-.25h0l.78-.11h0l.42-.06h0l.08,0,1-.16h.06l.32-.06.86-.15.69-.13.47-.1c.45-.09.91-.18,1.38-.29h0l.12,0,.87-.2h.07a5.65,5.65,0,0,0-5.46-7.14Zm-1.75,8.47h0Z"/><path class="cls-5" d="M30.45,64.65l-.12-.07a4.09,4.09,0,1,1,6-3.62,4.1,4.1,0,0,1-1.14,2.84l-.1.09-.13,0-.7.13-.87.16-.36.06H33l-1,.15-.09,0-.47.06h-.05l-.79.11Zm1.78-6.91a3.22,3.22,0,0,0-1.61,6l.64-.09h0l.42-.06h0l.08,0,1-.16h.06l.32-.06.86-.15.55-.11a3.22,3.22,0,0,0-2.41-5.35Z"/><path class="cls-9" d="M45.11,29.53V57l-13.78.27V32.39a1.09,1.09,0,0,1,.83-1.06l11.6-2.85A1.09,1.09,0,0,1,45.11,29.53Z"/><g class="cls-3"><rect class="cls-1" x="31.45" y="40.36" width="2.39" height="3.5" rx="0.92"/></g><g class="cls-3"><path class="cls-1" d="M35.6,43.86h0a1.19,1.19,0,0,1-1.19-1.2V41.55a1.19,1.19,0,0,1,1.19-1.19h0a1.19,1.19,0,0,1,1.2,1.19v1.11A1.2,1.2,0,0,1,35.6,43.86Z"/></g><g class="cls-3"><path class="cls-1" d="M38.19,43.86h0a1.2,1.2,0,0,1-1.2-1.2V41.55a1.19,1.19,0,0,1,1.2-1.19h0a1.19,1.19,0,0,1,1.2,1.19v1.11A1.2,1.2,0,0,1,38.19,43.86Z"/></g><g class="cls-3"><rect class="cls-1" x="39.94" y="40.36" width="2.39" height="3.5" rx="0.92"/></g><g class="cls-3"><rect class="cls-1" x="42.72" y="40.36" width="2.39" height="3.5" rx="0.92"/></g><g class="cls-3"><path class="cls-1" d="M45.11,29.53v1.75a1.09,1.09,0,0,0-1.35-1.06l-11.6,2.85a1.09,1.09,0,0,0-.83,1.06V32.39a1.09,1.09,0,0,1,.83-1.06l11.6-2.85A1.09,1.09,0,0,1,45.11,29.53Z"/></g><path class="cls-5" d="M30.74,57.84V32.39A1.67,1.67,0,0,1,32,30.76l11.6-2.86c.51-.12,1.05-.92,1.46-.6a4.06,4.06,0,0,1,.62,2.23v28ZM44,29l-.12,0L32.3,31.91a.49.49,0,0,0-.38.48V56.63l12.6-.24V29.53A.5.5,0,0,0,44,29Z"/><rect class="cls-5" x="33.66" y="31" width="0.87" height="26.2"/><rect class="cls-5" x="36.38" y="30.19" width="0.87" height="27.01"/><rect class="cls-5" x="39.11" y="29.51" width="0.87" height="27.46"/><rect class="cls-5" x="41.89" y="28.83" width="0.87" height="28.14"/><g class="cls-4"><path class="cls-5" d="M45.11,47.09V57l-13.78.27V49.92A13.08,13.08,0,0,0,45.11,47.09Z"/></g><g class="cls-10"><path class="cls-9" d="M32,65.26c0,.11,0,.22,0,.33l-.33.11c-.69.24-1.42.47-2.17.69l-.58.17-1.07.29-.72.18h-.08l-.2,0-.32.08-.87.2h0l-1.5.31-.47.1-.69.13-.88.16-.35,0h0l-1.1.17h0l-.45.07-.84.11h0c-.76.1-1.51.18-2.24.25l-.23,0-.73.06H16c-.58.05-1.15.08-1.7.11l-.88,0h-.21c-.84,0-1.65,0-2.42,0a10.83,10.83,0,0,1-.66-3.75,11,11,0,0,1,21.93,0Z"/><g class="cls-3"><path class="cls-1" d="M19.52,57a5.81,5.81,0,0,1,.72,0,1.25,1.25,0,0,0,1.21-1.28v0a1.24,1.24,0,0,0-1.29-1.2,7.87,7.87,0,0,0-1,.1,1.24,1.24,0,0,0-1,1.42h0A1.25,1.25,0,0,0,19.52,57Z"/></g><g class="cls-3"><path class="cls-1" d="M19.76,59.27c.24,0,.49-.05.73-.06a1.25,1.25,0,0,0,1.21-1.27v0a1.24,1.24,0,0,0-1.29-1.21c-.35,0-.69.06-1,.1a1.24,1.24,0,0,0-1,1.42h0A1.25,1.25,0,0,0,19.76,59.27Z"/></g><g class="cls-3"><path class="cls-1" d="M20.18,61.76q.36,0,.72-.06a1.24,1.24,0,0,0,1.21-1.27v0a1.24,1.24,0,0,0-1.29-1.21c-.34,0-.69.06-1,.1a1.25,1.25,0,0,0-1,1.42h0A1.25,1.25,0,0,0,20.18,61.76Z"/></g><path class="cls-5" d="M11.89,69.54h-1.4l-.12-.32A11.46,11.46,0,1,1,32.6,65.29c0,.12,0,.23,0,.34V66l-.32.11-.2.07-.13,0c-.69.24-1.43.48-2.2.7l-.58.17-1.08.29-.35.1h0l-.54.12-.12,0-.32.08-.81.19-.08,0-1.5.32-.49.09-.69.13-.87.16-.35.06h-.06l-1,.15-.08,0-.47.07H20.3l-.78.11h0c-.76.1-1.52.19-2.25.26h-.08l-.17,0-.66.06-.25,0-1.7.1-.89,0h-.21Zm7.6-.52h0Zm-8.3-.47c.65,0,1.31,0,2,0h.28l.87,0c.53,0,1.1-.06,1.69-.11h.23l.66-.06.15,0h.09c.71-.07,1.45-.15,2.2-.25h0l.78-.1h.05l.41-.06h.13l1-.16h.06l.32-.05.86-.15.69-.14.47-.09L25.51,67h0l.14,0,.87-.2.21,0v-.11h.43l.66-.17,1.06-.29.58-.16c.75-.22,1.47-.45,2.15-.69h0a10.47,10.47,0,0,0-20.94,0A10.25,10.25,0,0,0,11.19,68.55ZM19.38,68h0Z"/><path class="cls-5" d="M13.2,69.46l-.12-.25a8.8,8.8,0,0,1-.9-3.92,9,9,0,1,1,17.92,0A9.39,9.39,0,0,1,30,66.48l0,.28-.27.08-.58.16-1.08.3-.4.1h0l-.49.12-.12,0-.32.07-.81.19-.08,0c-.51.12-1,.22-1.51.32l-.48.1-.69.13-.87.15-.36.06h-.05l-1,.16h-.09l-.47.07h-.05l-.77.1h0c-.77.1-1.53.18-2.26.25H17l-.65.06-.25,0c-.59,0-1.17.08-1.7.1l-.89,0ZM19.48,69ZM21.14,57.2a8.11,8.11,0,0,0-7.4,11.38l.59,0c.53,0,1.09-.06,1.68-.1l.23,0,.67-.06h.23c.72-.06,1.46-.15,2.21-.24h0l.78-.11h0l.42-.06h.12l1-.16h.06l.32,0,.86-.16.69-.13.47-.09L25.54,67h0l.12,0,.87-.2.26-.06v-.1h.38l.66-.17,1.07-.29.3-.09c0-.26,0-.52,0-.79A8.1,8.1,0,0,0,21.14,57.2ZM19.39,68.1h0Z"/><path class="cls-5" d="M16,69.33l-.15-.2a6.53,6.53,0,1,1,11.81-3.84,6.31,6.31,0,0,1-.31,2l-.07.23-.24.06-.32.07-.81.19-.08,0c-.51.12-1,.22-1.51.32l-.48.1-.69.13-.87.15-.36.06h-.05l-1,.16h-.09l-.47.07h-.05l-.77.1h0c-.77.1-1.53.18-2.26.25H17l-.65.06ZM19.48,69Zm1.66-9.33a5.65,5.65,0,0,0-4.71,8.78l.48,0h.23c.72-.06,1.46-.15,2.21-.24h0l.78-.11h0l.42-.06h.12l1-.16h.06l.32,0,.86-.16.69-.13.47-.09L25.54,67h0l.12,0,.87-.2.07,0a5.64,5.64,0,0,0-5.46-7.13ZM19.39,68.1h0Z"/><path class="cls-5" d="M19.36,69l-.12-.06a4.09,4.09,0,1,1,4.85-.79l-.1.1-.13,0-.7.14-.87.15-.36.06h-.05l-1,.16h-.09l-.47.07h-.05l-.79.1Zm1.78-6.91a3.23,3.23,0,0,0-3.22,3.22,3.2,3.2,0,0,0,1.61,2.79l.64-.09h0l.42-.06h.12l1-.16h.06l.32,0,.86-.16.55-.1a3.22,3.22,0,0,0-2.41-5.36Z"/></g><path class="cls-9" d="M46.57,65.12c0,.11,0,.22,0,.32l-.33.11c-.69.24-1.42.47-2.17.69l-.58.17-1.07.29-.72.19h0l-.07,0h0l-.2,0L41.1,67l-.88.2h0l-1.5.32-.47.09-.69.14-.88.15-.35.06h0l-1.1.18h0l-.45.06-.84.12h0c-.76.1-1.51.18-2.24.25l-.23,0-.73.07h-.17c-.58,0-1.15.08-1.7.1l-.88,0h-.21c-.84,0-1.65,0-2.42,0a10.82,10.82,0,0,1-.66-3.74,11,11,0,1,1,21.93,0Z"/><g class="cls-3"><path class="cls-1" d="M34,56.8l.72-.06a1.23,1.23,0,0,0,1.21-1.27v0a1.24,1.24,0,0,0-1.28-1.21,10.07,10.07,0,0,0-1,.11,1.24,1.24,0,0,0-1,1.41h0A1.25,1.25,0,0,0,34,56.8Z"/></g><g class="cls-3"><path class="cls-1" d="M34.23,59.09A5.81,5.81,0,0,1,35,59a1.25,1.25,0,0,0,1.21-1.28v0a1.24,1.24,0,0,0-1.29-1.2,7.87,7.87,0,0,0-1,.1,1.23,1.23,0,0,0-1,1.42h0A1.25,1.25,0,0,0,34.23,59.09Z"/></g><g class="cls-3"><path class="cls-1" d="M34.64,61.58a5.81,5.81,0,0,1,.72,0,1.25,1.25,0,0,0,1.21-1.27v0A1.23,1.23,0,0,0,35.29,59a7.85,7.85,0,0,0-1,.1,1.24,1.24,0,0,0-1,1.42h0A1.23,1.23,0,0,0,34.64,61.58Z"/></g><path class="cls-5" d="M26.35,69.37l-1.06,0H25L24.83,69a11.46,11.46,0,1,1,22.23-3.91c0,.11,0,.23,0,.34v.34l-.31.11-.21.07-.13,0c-.69.24-1.43.47-2.19.7l-.59.16-1.07.3-.36.09h0l-.54.13-.12,0-.32.08-.8.18-.09,0c-.51.12-1,.23-1.5.32l-.48.1-.69.13-.88.16-.35,0h-.06l-1,.16h-.09l-.47.07h-.05l-.77.1h0c-.77.1-1.53.18-2.26.25h-.25l-.65.06-.26,0c-.59,0-1.16.08-1.7.1l-.88,0h-.21Zm7.6-.52h0Zm-8.3-.47c.65,0,1.31,0,2,0h.27c.3,0,.58,0,.88,0,.52,0,1.09-.06,1.68-.1l.23,0,.66-.06h.24c.71-.06,1.45-.15,2.2-.24h.05l.77-.11h.06l.41-.06h.13l1-.16h.07l.31-.05.87-.16.68-.13.47-.09L40,66.79h0l.15,0,.86-.2.21,0V66.4h.44l.65-.17,1.06-.29.58-.17c.75-.22,1.48-.45,2.15-.68h0a10.48,10.48,0,1,0-20.43,3.29Zm8.2-.51h0Z"/><path class="cls-5" d="M27.67,69.29,27.54,69a8.87,8.87,0,0,1-.9-3.92,9,9,0,0,1,17.93,0,9.11,9.11,0,0,1-.08,1.18l0,.28-.27.08-.58.17-1.08.29-.4.11h0l-.49.11-.12,0-.32.08-.81.19-.08,0L38.8,68l-.48.09-.69.13-.88.16-.35.06h0l-1,.15-.09,0-.46.06h-.06l-.77.11h0c-.77.1-1.53.19-2.26.26h-.07l-.17,0-.66.06h-.25c-.59,0-1.17.08-1.7.11l-.89,0Zm6.27-.5ZM35.6,57a8.1,8.1,0,0,0-8.09,8.09,7.83,7.83,0,0,0,.7,3.28l.58,0,1.68-.1.24,0,.66-.06h.23c.72-.07,1.46-.15,2.21-.25h0l.78-.11h.06l.41-.06h0l.09,0,1-.16h.06l.32-.06.87-.15.68-.13.47-.1c.45-.09.91-.18,1.38-.29h0l.13,0,.86-.2.26-.06v-.09h.38l.67-.17L43.36,66l.3-.08c0-.26,0-.53,0-.79A8.1,8.1,0,0,0,35.6,57Zm-1.75,10.9Z"/><path class="cls-5" d="M30.47,69.15l-.15-.2a6.52,6.52,0,1,1,11.51-1.86l-.08.23-.23.06-.33.08-.81.19-.08,0L38.8,68l-.48.09-.69.13-.88.16-.35.06h0l-1,.15-.09,0-.46.06h-.06l-.77.11h0c-.77.1-1.53.19-2.26.26h-.07l-.17,0-.66.06Zm3.47-.36Zm1.66-9.33A5.66,5.66,0,0,0,30,65.12a5.58,5.58,0,0,0,.94,3.12l.48,0h.23c.72-.07,1.46-.15,2.21-.25h0l.78-.11h.06l.41-.06h0l.09,0,1-.16h.06l.32-.06.87-.15.68-.13.47-.1c.45-.09.91-.18,1.38-.29h0l.13,0,.86-.2h.08a6.13,6.13,0,0,0,.19-1.48A5.67,5.67,0,0,0,35.6,59.46Zm-1.75,8.47Z"/><path class="cls-5" d="M33.83,68.81l-.12-.07a4.05,4.05,0,0,1-2.2-3.62,4.09,4.09,0,1,1,7,2.84l-.1.09-.13,0-.69.13-.88.16-.35.06h0l-1,.15-.09,0-.46.06h-.06l-.79.11ZM35.6,61.9a3.22,3.22,0,0,0-1.61,6l.64-.09h.06l.41-.06h0l.09,0,1-.16h.06l.32-.06.87-.15.54-.11a3.14,3.14,0,0,0,.81-2.13A3.22,3.22,0,0,0,35.6,61.9Z"/><path class="cls-9" d="M36.31,68l-1.1.18h0l-.45.06q-.44.08-.87.12c-.76.1-1.51.18-2.24.25l-.23,0-.87.08h0c-.58,0-1.15.08-1.7.1l-1.08,0h0c-1.49,0-2.89,0-4.19-.06l-.93-.06c-.72-.06-1.41-.14-2.07-.23h0L20,68.43A24.32,24.32,0,0,1,17.6,68l-.17,0-.66-.17c-.54-.16-1-.32-1.5-.49a11,11,0,0,1,21,.75Z"/><g class="cls-3"><path class="cls-1" d="M23.61,62.39l.71-.17a1.25,1.25,0,0,0,1-1.44v0a1.23,1.23,0,0,0-1.46-1,8.57,8.57,0,0,0-1,.25,1.25,1.25,0,0,0-.8,1.57h0A1.26,1.26,0,0,0,23.61,62.39Z"/></g><g class="cls-3"><path class="cls-1" d="M24.32,64.81a5.77,5.77,0,0,1,.72,0,1.26,1.26,0,0,0,1.27-1.22v0a1.24,1.24,0,0,0-1.23-1.26,8.13,8.13,0,0,0-1,.05A1.25,1.25,0,0,0,23,63.72h0A1.25,1.25,0,0,0,24.32,64.81Z"/></g><g class="cls-3"><path class="cls-1" d="M24.8,67.13l.73,0a1.24,1.24,0,0,0,1.26-1.22v0a1.24,1.24,0,0,0-1.23-1.26,8.07,8.07,0,0,0-1,.06A1.23,1.23,0,0,0,23.46,66h0A1.24,1.24,0,0,0,24.8,67.13Z"/></g><path class="cls-5" d="M26.32,69.37c-1.29,0-2.55-.05-3.76-.15-.7-.06-1.39-.13-2.06-.23h-.09L20,68.91c-.85-.13-1.68-.29-2.46-.48l-.11,0-.07,0-.68-.18c-.55-.16-1.07-.32-1.53-.5l-.45-.16.15-.45a11.46,11.46,0,0,1,22,.78l.13.52-.52.09-1,.16h-.09l-.47.07-.87.12c-.76.1-1.52.18-2.25.25h-.25l-.87.08h0c-.59,0-1.16.08-1.7.1l-1,0h-.07ZM20.57,68h0c.66.09,1.35.17,2,.23a45.5,45.5,0,0,0,5,.12h.08l1.07,0c.52,0,1.09-.06,1.68-.1h0l.85-.08h.24c.72-.06,1.46-.15,2.22-.25l.86-.11.41-.06h.13l.46-.08A10.47,10.47,0,0,0,15.9,67c.31.11.65.21,1,.31l.64.17.18,0c.75.18,1.55.34,2.38.46l.46.07Z"/><path class="cls-5" d="M26.32,69.31c-1.29,0-2.55,0-3.75-.15-.7-.06-1.4-.13-2.07-.22h-.08L20,68.86c-.85-.13-1.68-.29-2.46-.48L17,68.26l.15-.45a9,9,0,0,1,17.11.43l.14.49-.5.06c-.77.1-1.53.19-2.26.26h-.07l-.17,0-.87.07h0c-.59,0-1.17.08-1.7.11l-1,0h-.07Zm-5.75-1.24h0c.67.09,1.35.17,2.05.22a45.56,45.56,0,0,0,5,.13h.07l1.07,0,1.68-.1h0l.86-.07h.23L33.31,68a8.1,8.1,0,0,0-15.13-.36c.62.14,1.26.26,1.91.36l.46.06Z"/><path class="cls-5" d="M26.32,69.31c-1.29,0-2.55,0-3.75-.15-.7-.06-1.4-.13-2.07-.22h-.08L20,68.86l-.54-.09.2-.5a6.53,6.53,0,0,1,12.2.22L32,69l-.56.06-.88.07h0c-.59,0-1.17.08-1.7.11l-1,0h-.07Zm-5.65-1.23c.64.09,1.3.16,2,.21a45.56,45.56,0,0,0,5,.13h.07l1.07,0,1.68-.1h0l.27,0a5.65,5.65,0,0,0-10.11-.17Z"/><path class="cls-5" d="M26.32,69.31c-1.29,0-2.55,0-3.75-.15l-.72-.06.39-.61a4.09,4.09,0,0,1,6.94.1l.38.62-.73,0-1,0h-.07Zm-2.85-1c1.34.09,2.74.11,4.18.07h.29a3.19,3.19,0,0,0-2.26-.93A3.25,3.25,0,0,0,23.47,68.35Z"/><g class="cls-4"><path class="cls-5" d="M36.31,68l-1.1.18h0l-.45.06q-.44.08-.87.12c-.76.1-1.51.18-2.24.25l-.23,0-.87.08h0c-.58,0-1.15.08-1.7.1l-1.08,0h0c-1.49,0-2.89,0-4.19-.06,3.08-.33,6.23-2,9.49-6.22A11,11,0,0,1,36.31,68Z"/></g><g class="cls-11"><path class="cls-9" d="M63.25,59.51c-.32.15-.67.3-1,.44s-.8.31-1.24.45l-.59.18c-.55.17-1.13.33-1.75.48l-.67.15-.57.12-.17,0-1,.18c-1,.18-2.09.32-3.24.43l-.88.08c-.92.08-1.88.13-2.88.16l-1.11,0H46.75l-.9,0h0l-1.53-.06-1.18-.07L42.24,62l-.36,0a10.84,10.84,0,0,1,.92-3.61,11,11,0,0,1,12.71-6.16,11.41,11.41,0,0,1,2,.74A11,11,0,0,1,63.25,59.51Z"/><g class="cls-3"><path class="cls-1" d="M50.57,54.64c.23-.07.47-.12.71-.17a1.24,1.24,0,0,0,1-1.44v0a1.24,1.24,0,0,0-1.46-1,8.57,8.57,0,0,0-1,.25,1.24,1.24,0,0,0-.8,1.56h0A1.25,1.25,0,0,0,50.57,54.64Z"/></g><g class="cls-3"><path class="cls-1" d="M51.31,56.86c.24-.06.47-.12.71-.16a1.25,1.25,0,0,0,1-1.45v0a1.24,1.24,0,0,0-1.46-1,8.73,8.73,0,0,0-1,.26,1.23,1.23,0,0,0-.79,1.56h0A1.23,1.23,0,0,0,51.31,56.86Z"/></g><g class="cls-3"><path class="cls-1" d="M51.81,59.16c.24,0,.48-.08.72-.11a1.23,1.23,0,0,0,1.13-1.34v0a1.24,1.24,0,0,0-1.37-1.12,9.75,9.75,0,0,0-1,.16,1.24,1.24,0,0,0-.93,1.49h0A1.24,1.24,0,0,0,51.81,59.16Z"/></g><g class="cls-4"><path class="cls-5" d="M63.25,59.51c-.32.15-.67.3-1,.44s-.8.31-1.24.45l-.59.18c-.55.17-1.13.33-1.75.48l-.67.15-.57.12-.17,0-1,.18c-1,.18-2.09.32-3.24.43l-.88.08c-.92.08-1.88.13-2.88.16l-1.11,0H46.75l-.9,0h0l-1.53-.06-1.18-.07L42.24,62l-.36,0a10.84,10.84,0,0,1,.92-3.61c9,3.66,14.51,2.68,14.74-5.42A11,11,0,0,1,63.25,59.51Z"/></g><path class="cls-5" d="M41.35,62.44l0-.48a11.2,11.2,0,0,1,.32-1.91,11.45,11.45,0,0,1,22-.69l.13.42-.39.18c-.33.15-.67.3-1.07.45s-.82.31-1.26.46l-.61.19c-.55.16-1.15.33-1.78.48l-.67.15-.59.13-.17,0-1,.19c-1,.18-2.15.32-3.28.43l-.9.08c-.91.08-1.89.13-2.9.16l-1.12,0H46.74l-.83,0h-.08c-.53,0-1,0-1.54-.06l-1.19-.07c-.3,0-.59,0-.89-.06l-.38,0Zm14-9.73a10.49,10.49,0,0,0-12.73,7.58c-.1.41-.18.84-.24,1.26l.74.05,1.18.07,1.38,0H47l0-.11.42.11h.68l1.1,0c1,0,1.95-.07,2.86-.15l.87-.08c1.11-.1,2.19-.25,3.21-.42l1-.18.17,0,.57-.12.65-.15c.61-.15,1.19-.3,1.73-.47l.58-.18c.43-.14.83-.28,1.21-.43l.61-.25A10.43,10.43,0,0,0,55.39,52.71Z"/><path class="cls-5" d="M43.84,62.57l0-.45a9.07,9.07,0,0,1,.24-1.46,9,9,0,0,1,17.27-.39l.12.41-.4.13-.6.19c-.56.17-1.15.33-1.78.48l-.67.16-.59.12-.17,0c-.36.08-.69.14-1,.19-1,.18-2.14.33-3.28.44l-.89.08c-.92.07-1.89.12-2.9.15l-1.12,0H46.74l-.83,0h-.08c-.52,0-1,0-1.54-.06ZM54.8,55A8.09,8.09,0,0,0,45,60.88a6.09,6.09,0,0,0-.17.87l.94,0h.13l.89,0H47l0-.1.37.1h.68l1.1,0c1,0,2-.08,2.86-.15l.87-.08c1.12-.11,2.2-.25,3.22-.43l1-.18.17,0,.57-.12.66-.15c.61-.15,1.19-.31,1.73-.47l.16-.05A8.13,8.13,0,0,0,54.8,55Z"/><path class="cls-5" d="M46.27,62.66l0-.47a6.07,6.07,0,0,1,.17-.93A6.52,6.52,0,0,1,59,60.93l.14.44-.45.11-.67.16-.59.12-.17,0c-.36.08-.69.14-1,.19-1,.18-2.14.33-3.28.44l-.89.08c-.92.07-1.89.12-2.9.15l-1.12,0H46.27Zm7.93-5.28a5.66,5.66,0,0,0-6.87,4.09c0,.1,0,.2-.07.3l.16,0h.68l1.1,0c1,0,2-.08,2.86-.15l.87-.08c1.12-.11,2.2-.25,3.22-.43l1-.18.17,0,.57-.12.19,0A5.63,5.63,0,0,0,54.2,57.38Z"/><path class="cls-5" d="M48.7,62.67l.09-.53a1.4,1.4,0,0,1,.06-.28,4.09,4.09,0,0,1,7.78-.46l.19.49L56.3,62c-1,.18-2.14.33-3.28.44l-.89.08c-.92.07-1.89.12-2.9.15Zm4.9-2.93a3.22,3.22,0,0,0-3.81,2c.78,0,1.55-.07,2.27-.13l.87-.08c.91-.09,1.8-.2,2.65-.33A3.2,3.2,0,0,0,53.6,59.74Z"/></g><path class="cls-9" d="M56.42,60.34c-.28.23-.58.46-.9.68s-.7.5-1.09.74l-.53.33c-.49.29-1,.59-1.58.89l-.61.31-.53.26-.16.07c-.29.15-.6.29-.91.43-.94.41-2,.82-3,1.21-.28.1-.55.2-.84.29-.87.3-1.79.59-2.75.86l-1.07.29-.72.19h0l-.07,0h0L41.1,67l-.88.2h0l-1.5.32-1.16.23-.88.15-.35.06a10.24,10.24,0,0,1-.16-1.84,11.63,11.63,0,0,1,.16-1.88,11,11,0,0,1,20.1-3.94Z"/><g class="cls-3"><path class="cls-1" d="M42.93,58.74a5.62,5.62,0,0,1,.64-.34,1.25,1.25,0,0,0,.62-1.65h0a1.24,1.24,0,0,0-1.66-.61,8.09,8.09,0,0,0-.88.49,1.24,1.24,0,0,0-.39,1.71h0A1.26,1.26,0,0,0,42.93,58.74Z"/></g><g class="cls-3"><path class="cls-1" d="M44.2,60.71c.21-.12.42-.24.64-.34a1.25,1.25,0,0,0,.62-1.64v0a1.25,1.25,0,0,0-1.66-.61,8.09,8.09,0,0,0-.88.49,1.24,1.24,0,0,0-.39,1.71h0A1.25,1.25,0,0,0,44.2,60.71Z"/></g><g class="cls-3"><path class="cls-1" d="M45.24,62.81c.23-.1.45-.2.68-.28A1.25,1.25,0,0,0,46.68,61v0a1.24,1.24,0,0,0-1.59-.75,9,9,0,0,0-.93.4,1.24,1.24,0,0,0-.54,1.67h0A1.24,1.24,0,0,0,45.24,62.81Z"/></g><g class="cls-4"><path class="cls-5" d="M56.42,60.34c-.28.23-.58.46-.9.68s-.7.5-1.09.74l-.53.33c-.49.29-1,.59-1.58.89l-.61.31-.53.26-.16.07c-.29.15-.6.29-.91.43-.94.41-2,.82-3,1.21-.28.1-.55.2-.84.29-.87.3-1.79.59-2.75.86l-1.07.29-.72.19h0l-.07,0h0L41.1,67l-.88.2h0l-1.5.32-1.16.23-.88.15-.35.06a10.24,10.24,0,0,1-.16-1.84,11.63,11.63,0,0,1,.16-1.88c9.6,1.34,14.73-1,13-8.88A11,11,0,0,1,56.42,60.34Z"/></g><path class="cls-5" d="M35.91,68.56l-.08-.48a11.22,11.22,0,0,1-.16-1.92,11.46,11.46,0,0,1,21.17-6.08l.18.29-.34.32c-.28.23-.53.49-.87.73s-.72.51-1.12.76l-.53.33c-.5.3-1,.6-1.61.9l-.62.32c-.17.09-.35.18-.54.26l-.15.08-.93.43c-1,.42-2,.84-3.08,1.23l-.84.29c-.87.3-1.8.59-2.78.86l-1.07.3-.36.09h0l-.38.09h0l-.19,0-.39.1-.81.18-.09,0c-.51.12-1,.23-1.5.32l-1.17.23-.88.16-.37.06ZM47.13,55.68A10.49,10.49,0,0,0,36.65,66.16a10.83,10.83,0,0,0,.08,1.27l.73-.13,1.15-.22L40,66.79h0l.15,0,.86-.2.21,0V66.4h.44l.65-.17,1.06-.29c1-.27,1.88-.56,2.73-.85l.83-.29c1.05-.38,2.07-.79,3-1.2l.9-.42.16-.07.52-.26.6-.31c.55-.29,1.08-.58,1.56-.87l.52-.32c.37-.24.73-.49,1.06-.72l.53-.39A10.43,10.43,0,0,0,47.13,55.68Z"/><path class="cls-5" d="M38.36,68.07l-.08-.44A9,9,0,0,1,54.8,61.54l.22.36-.36.23-.53.33c-.5.3-1,.6-1.61.9l-.61.32-.54.26-.16.08-.92.42c-1,.43-2,.84-3.08,1.23l-.84.3c-.87.3-1.8.59-2.77.86l-1.08.29-.4.11h0l-.34.08h0l-.18,0-.4.1-.81.19-.08,0L38.8,68Zm8.77-10a8.1,8.1,0,0,0-8.1,8.1,8.65,8.65,0,0,0,0,.88l.92-.2h0l.13,0,.86-.2.26-.06v-.09h.38l.67-.17L43.36,66c1-.27,1.88-.55,2.73-.85l.83-.29c1.06-.38,2.07-.78,3-1.2l.91-.42.15-.07.53-.26.6-.31c.55-.29,1.08-.58,1.56-.88l.15-.09A8.17,8.17,0,0,0,47.13,58.06Z"/><path class="cls-5" d="M40.73,67.57l-.07-.47a7.42,7.42,0,0,1-.06-.94,6.52,6.52,0,0,1,12.09-3.41l.24.4-.41.21-.61.32-.54.26-.16.08-.92.42c-1,.43-2,.84-3.08,1.23l-.84.3c-.87.3-1.8.59-2.77.86l-1.08.29-.4.11h0l-.34.08h0l-.18,0-.4.1Zm6.4-7.07a5.67,5.67,0,0,0-5.66,5.66c0,.1,0,.2,0,.3h.15l.67-.17L43.36,66c1-.27,1.88-.55,2.73-.85l.83-.29c1.06-.38,2.07-.78,3-1.2l.91-.42.15-.07.53-.26.17-.09A5.64,5.64,0,0,0,47.13,60.5Z"/><path class="cls-5" d="M43.09,67l0-.52c0-.1,0-.2,0-.29a4.09,4.09,0,0,1,7.43-2.37l.31.44-.48.21c-1,.43-2,.84-3.08,1.23l-.84.3c-.87.3-1.8.59-2.77.86Zm4-4a3.23,3.23,0,0,0-3.21,2.9c.76-.22,1.48-.45,2.17-.69l.83-.29c.86-.31,1.69-.63,2.48-1A3.23,3.23,0,0,0,47.13,62.93Z"/><path class="cls-5" d="M26.31,69.37A43.58,43.58,0,0,1,20.55,69h0l-.13,0a29,29,0,0,1-3.1-.59l-.68-.18a16.66,16.66,0,0,1-2.31-.82,7.41,7.41,0,0,1-2.39-1.52.49.49,0,0,1,0-.7.5.5,0,0,1,.7,0,6.54,6.54,0,0,0,2.07,1.31,16.28,16.28,0,0,0,2.19.77l.64.17a27.92,27.92,0,0,0,3,.58h0a43.26,43.26,0,0,0,7.08.35h0c.91,0,1.84-.07,2.76-.14h0l1.08-.1q1.5-.14,3.09-.36l.45-.07,1.46-.23.87-.16c.86-.16,1.72-.33,2.55-.52h0l.09,0,1-.24v0l.47-.08.69-.18c1.3-.34,2.58-.73,3.79-1.14l.83-.29c1.38-.5,2.7-1,3.91-1.62l.15-.07.53-.26c.76-.38,1.49-.78,2.16-1.18s1.11-.7,1.58-1c2.5-1.79,4.37-6,4.24-6.79a.5.5,0,0,1,.41-.57.51.51,0,0,1,.57.41c.23,1.34-2,5.87-4.64,7.75-.5.36-1.06.72-1.65,1.08s-1.45.83-2.23,1.22c-.17.09-.35.18-.54.26l-.16.08c-1.24.59-2.58,1.15-4,1.66l-.84.29c-1.24.42-2.53.81-3.85,1.16l-.48.12-.25.07h-.08l-1.31.31h0l-.11,0c-.87.19-1.76.37-2.66.54l-.88.16-1.48.23-.47.07c-1.06.15-2.12.28-3.12.37l-1.12.1h0c-.92.07-1.85.12-2.76.14h0Z"/><path class="cls-5" d="M26.31,69.37A43.73,43.73,0,0,1,20.54,69h0l-.12,0a29,29,0,0,1-3.1-.59l-.68-.18a16.66,16.66,0,0,1-2.31-.82A37.52,37.52,0,0,1,9,63.83a.5.5,0,0,1,0-.7.48.48,0,0,1,.69,0,39.08,39.08,0,0,0,5,3.34,16.28,16.28,0,0,0,2.19.77l.64.17a27.92,27.92,0,0,0,3,.58h0a43.19,43.19,0,0,0,7.07.35h0c.91,0,1.84-.07,2.76-.14h0l1.08-.1q1.5-.14,3.09-.36l.45-.07,1.46-.23.87-.16c.86-.16,1.71-.33,2.55-.52h0l.1,0,1-.24v0l.46-.09.7-.18c1.3-.34,2.58-.73,3.79-1.14l.83-.29c1.38-.5,2.7-1,3.91-1.62l.15-.07.53-.26c.76-.38,1.49-.78,2.16-1.18s1.11-.7,1.58-1c2.5-1.79,4.33-5.88,4.21-6.63a.49.49,0,0,1,1-.17c.23,1.34-2,5.72-4.6,7.6-.5.36-1.06.72-1.65,1.08s-1.45.83-2.23,1.22c-.17.09-.35.18-.54.26l-.16.08c-1.24.59-2.58,1.15-4,1.66l-.84.29c-1.24.42-2.54.81-3.85,1.16l-.58.15-.15,0h-.08l-1.3.31h0l-.11,0c-.88.2-1.77.38-2.67.55l-.88.16-1.48.23-.47.07c-1.06.15-2.12.28-3.12.37l-1.12.1h0c-.92.07-1.85.12-2.75.14h0Z"/></g></g></svg>